<svg xmlns="http://www.w3.org/2000/svg" xmlns:xlink="http://www.w3.org/1999/xlink" width="362" height="44" viewBox="0 0 362 44"><defs><style>.a{fill:#4d4d4d;}.a,.d{opacity:0;}.b{fill:#00a0db;}.c{clip-path:url(#a);}.e{fill:#d9e021;}</style><clipPath id="a"><path d="M39.8,26.63A4.87,4.87,0,0,0,37.1,24.1L31.4,21.95a18.315,18.315,0,0,0-9.8,10.335,26.925,26.925,0,0,0-1,3.022,7.57,7.57,0,0,1,3.2.682l7.3,2.925a4.861,4.861,0,0,0,3.7,0,4.235,4.235,0,0,0,2.5-2.535l2.5-6.142a4.15,4.15,0,0,0,0-3.607M32.1,55.393,41.5,59a19.564,19.564,0,0,0,14.9-8.19,11.876,11.876,0,0,0-.4-1.56,5.056,5.056,0,0,0-2.8-2.535l-6.9-2.73c-.2.1-.4.1-.5.195a1.517,1.517,0,0,1-.7.1,2.438,2.438,0,1,1,2.4-3.022l6.8,2.73a5.118,5.118,0,0,0,3.8,0,5.616,5.616,0,0,0,1.5-.975,18.358,18.358,0,0,0-3.5-14.82L45,23.705l1-2.34.2-.487a20.479,20.479,0,0,0-10.3-.39l2.4.975a7.4,7.4,0,0,1,4.5,4.095,7.04,7.04,0,0,1,.2,5.85L40.4,37.55a7.331,7.331,0,0,1-4.3,4.095,8.243,8.243,0,0,1-6.1,0L22.7,38.72c-3-.975-2.8.195-2.5,2.535a19.359,19.359,0,0,0,2.6,7.995,19.823,19.823,0,0,0,8.7,7.9" transform="translate(-20.04 -20.006)"/></clipPath></defs><g transform="translate(-0.479)"><g transform="translate(0.479)"><rect class="a" width="80" height="44"/><g transform="translate(19.128 2.397)"><path class="b" d="M39.8,26.63A4.87,4.87,0,0,0,37.1,24.1L31.4,21.95a18.315,18.315,0,0,0-9.8,10.335,26.925,26.925,0,0,0-1,3.022,7.57,7.57,0,0,1,3.2.682l7.3,2.925a4.861,4.861,0,0,0,3.7,0,4.235,4.235,0,0,0,2.5-2.535l2.5-6.142a4.15,4.15,0,0,0,0-3.607M32.1,55.393,41.5,59a19.564,19.564,0,0,0,14.9-8.19,11.876,11.876,0,0,0-.4-1.56,5.056,5.056,0,0,0-2.8-2.535l-6.9-2.73c-.2.1-.4.1-.5.195a1.517,1.517,0,0,1-.7.1,2.438,2.438,0,1,1,2.4-3.022l6.8,2.73a5.118,5.118,0,0,0,3.8,0,5.616,5.616,0,0,0,1.5-.975,18.358,18.358,0,0,0-3.5-14.82L45,23.705l1-2.34.2-.487a20.479,20.479,0,0,0-10.3-.39l2.4.975a7.4,7.4,0,0,1,4.5,4.095,7.04,7.04,0,0,1,.2,5.85L40.4,37.55a7.331,7.331,0,0,1-4.3,4.095,8.243,8.243,0,0,1-6.1,0L22.7,38.72c-3-.975-2.8.195-2.5,2.535a19.359,19.359,0,0,0,2.6,7.995,19.823,19.823,0,0,0,8.7,7.9" transform="translate(-20.04 -20.006)"/><g class="c"><rect class="b" width="41" height="40.755" transform="translate(-0.44 -0.299)"/></g></g><g class="d"><rect class="e" width="20" height="20"/><rect class="e" width="20" height="20" transform="translate(60)"/><rect class="e" width="20" height="20" transform="translate(0 24)"/><rect class="e" width="20" height="20" transform="translate(60 24)"/></g></g><g transform="translate(59.568)"><rect class="a" width="302" height="44" transform="translate(0.911)"/><g transform="translate(20 9.264)"><g transform="translate(230.179)"><path class="b" d="M322.9,51.8H307.7V48.9l2.7-2.9c4.6-4.7,7.3-7.8,7.3-11a3.466,3.466,0,0,0-3.8-3.8,7.908,7.908,0,0,0-4.5,1.7l-1.3-3.4a11.94,11.94,0,0,1,6.8-2.2c5.2,0,7.6,3.3,7.6,7.2,0,4.2-2.9,7.7-6.5,11.2l-2,2v.1h8.9Z" transform="translate(-307.7 -27.3)"/></g><g transform="translate(247.479 0.1)"><path class="b" d="M335.1,38.9a6.051,6.051,0,0,1,4.9,6c0,4-3.2,7.2-8.9,7.2a11.824,11.824,0,0,1-6.1-1.5l1.1-3.5a9.73,9.73,0,0,0,4.7,1.3c2.9,0,4.4-1.8,4.4-3.7,0-2.7-2.4-4-5-4h-1.6V37.4h1.5c1.9,0,4.3-1,4.3-3.4,0-1.7-1.1-2.9-3.4-2.9a8.033,8.033,0,0,0-4.2,1.3l-1-3.4a12.875,12.875,0,0,1,6.3-1.6c4.7,0,7.1,2.7,7.1,5.9a5.935,5.935,0,0,1-4.1,5.6Z" transform="translate(-325 -27.4)"/></g><g transform="translate(0 2.9)"><path class="b" d="M80,30.9a36,36,0,0,1,6.4-.4c3,0,4.9.3,6.5,1.2a4.732,4.732,0,0,1,2.6,4.2c0,1.9-1.1,3.7-3.6,4.6v.1c2.5.7,4.4,2.5,4.4,5.3A5.635,5.635,0,0,1,94,50.5c-1.6,1.2-4.3,2-8.6,2-2.4,0-4.3-.2-5.4-.3Zm4.9,8.2h1.6c2.6,0,4-1.1,4-2.7s-1.3-2.5-3.5-2.5c-1.1,0-1.7.1-2.1.1Zm0,9.6a10.318,10.318,0,0,0,1.9.1c2.2,0,4.2-.8,4.2-3.1,0-2.2-2-3-4.5-3H84.8v6Z" transform="translate(-80 -30.2)"/><path class="b" d="M99.6,30.9a40.057,40.057,0,0,1,6.6-.4c3.2,0,5.5.5,7.1,1.7a5.354,5.354,0,0,1,2,4.5,5.7,5.7,0,0,1-3.9,5.3h0c1.5.6,2.4,2,2.9,4,.7,2.4,1.4,5.3,1.8,6.1H111a21.887,21.887,0,0,1-1.5-5c-.6-2.7-1.5-3.4-3.5-3.5h-1.5v8.5H99.6Zm4.9,9.2h1.9c2.5,0,3.9-1.2,3.9-3.1,0-2-1.4-3-3.6-3a8.209,8.209,0,0,0-2.2.2v5.9Z" transform="translate(-80 -30.2)"/><path class="b" d="M124.3,46.6l-1.6,5.5h-5.1l6.7-21.6h6.5l6.8,21.6h-5.3l-1.7-5.5Zm5.6-3.6-1.4-4.6c-.4-1.3-.8-2.9-1.1-4.2h-.1c-.3,1.3-.6,2.9-1,4.2L125,43Z" transform="translate(-80 -30.2)"/><path class="b" d="M145.5,30.6V52.2h-5V30.6Z" transform="translate(-80 -30.2)"/><path class="b" d="M149.8,52.1V30.6h5.8l4.5,7.9a72.057,72.057,0,0,1,3.6,7.4h.1a86.435,86.435,0,0,1-.4-9V30.6h4.5V52.2h-5.2L158,43.9c-1.3-2.3-2.7-5.1-3.8-7.6h-.1c.1,2.8.2,5.9.2,9.4v6.5h-4.5Z" transform="translate(-80 -30.2)"/><path class="b" d="M178.9,47.1a12.386,12.386,0,0,0,5.5,1.3c2.3,0,3.5-.9,3.5-2.3,0-1.3-1-2.1-3.7-3-3.6-1.2-6-3.2-6-6.4,0-3.7,3.1-6.5,8.3-6.5a13.141,13.141,0,0,1,5.6,1.1L191,35.2a10.813,10.813,0,0,0-4.6-1c-2.1,0-3.2,1-3.2,2.1,0,1.4,1.2,2,4.1,3,3.9,1.4,5.7,3.4,5.7,6.4,0,3.6-2.8,6.7-8.8,6.7a13.987,13.987,0,0,1-6.2-1.3Z" transform="translate(-80 -30.2)"/><path class="b" d="M200.5,34.7h-5.9V30.6h16.8v4.1h-6V52.2h-5V34.7Z" transform="translate(-80 -30.2)"/><path class="b" d="M216.9,46.6l-1.6,5.5h-5.1l6.7-21.6h6.5l6.8,21.6h-5.3l-1.7-5.5Zm5.5-3.6L221,38.4c-.4-1.3-.8-2.9-1.1-4.2h-.1c-.3,1.3-.7,2.9-1,4.2L217.5,43Z" transform="translate(-80 -30.2)"/><path class="b" d="M234.6,34.7h-5.9V30.6h16.8v4.1h-6V52.2h-5V34.7Z" transform="translate(-80 -30.2)"/><path class="b" d="M253.2,30.6V52.2h-5V30.6Z" transform="translate(-80 -30.2)"/><path class="b" d="M277.5,41.1c0,7.1-4.4,11.4-10.8,11.4-6.5,0-10.3-4.8-10.3-11,0-6.5,4.2-11.3,10.7-11.3C273.9,30.2,277.5,35.2,277.5,41.1Zm-15.8.3c0,4.2,2,7.2,5.3,7.2s5.3-3.1,5.3-7.3c0-3.9-1.9-7.2-5.3-7.2C263.7,34.1,261.7,37.2,261.7,41.4Z" transform="translate(-80 -30.2)"/><path class="b" d="M280.8,52.1V30.6h5.8l4.5,7.9a72.06,72.06,0,0,1,3.6,7.4h.1a86.439,86.439,0,0,1-.4-9V30.6h4.5V52.2h-5.2L289,43.9c-1.3-2.3-2.7-5.1-3.8-7.6h-.1c.1,2.8.2,5.9.2,9.4v6.5h-4.5Z" transform="translate(-80 -30.2)"/></g></g><g class="d" transform="translate(0 6.793)"><rect class="e" width="20" height="20" transform="translate(0 0)"/><rect class="e" width="20" height="20" transform="translate(282.479 0)"/><rect class="e" width="20" height="20" transform="translate(0 10.214)"/><rect class="e" width="20" height="20" transform="translate(282.479 10.214)"/></g></g></g></svg>