<?xml version="1.0" standalone="no"?>
<!DOCTYPE svg PUBLIC "-//W3C//DTD SVG 20010904//EN"
 "http://www.w3.org/TR/2001/REC-SVG-20010904/DTD/svg10.dtd">
<svg version="1.0" xmlns="http://www.w3.org/2000/svg"
 width="171.000000pt" height="171.000000pt" viewBox="0 0 171.000000 171.000000"
 preserveAspectRatio="xMidYMid meet">
<metadata>
Created by potrace 1.11, written by Peter Selinger 2001-2013
</metadata>
<g transform="translate(0.000000,171.000000) scale(0.100000,-0.100000)"
fill="#000000" stroke="none">
<path d="M780 1604 c-145 -25 -233 -57 -331 -119 -161 -103 -281 -275 -325
-462 -23 -96 -20 -248 5 -346 56 -214 201 -393 396 -487 124 -60 190 -75 335
-74 115 0 133 3 224 34 546 185 693 864 271 1258 -85 80 -217 152 -325 177
-68 16 -208 27 -250 19z m258 -55 c191 -51 353 -181 447 -360 42 -80 75 -201
75 -276 l0 -53 -50 0 -50 0 0 43 c0 23 -7 70 -15 102 -56 219 -237 401 -451
451 -110 26 -257 16 -359 -25 -150 -59 -269 -171 -336 -317 -25 -54 -39 -109
-54 -216 l-6 -38 -51 0 -51 0 7 63 c32 284 207 513 466 608 142 52 280 58 428
18z m-249 -305 l66 -120 69 123 69 123 45 0 c31 0 43 -4 39 -12 -3 -7 -43 -75
-90 -151 l-85 -139 75 -126 c41 -70 84 -142 95 -159 l20 -33 -49 0 -48 1 -70
124 c-38 69 -72 125 -75 125 -3 0 -34 -54 -69 -121 -35 -66 -69 -123 -76 -125
-7 -3 -29 -4 -48 -2 l-36 3 89 150 c50 83 90 154 90 158 0 5 -38 74 -85 154
-47 80 -85 147 -85 150 0 2 21 3 46 1 l47 -3 66 -121z m-519 -599 c0 -48 -2
-55 -20 -55 -17 0 -20 -7 -20 -40 0 -22 -4 -40 -10 -40 -6 0 -10 38 -10 95 l0
95 30 0 c30 0 30 -1 30 -55z m760 21 c0 -25 5 -35 20 -39 17 -4 20 -14 20 -61
0 -31 -4 -56 -10 -56 -5 0 -10 20 -10 45 0 25 -4 45 -10 45 -5 0 -10 -20 -10
-45 0 -25 -4 -45 -10 -45 -6 0 -10 38 -10 95 0 57 4 95 10 95 6 0 10 -15 10
-34z m-76 -39 c8 -6 8 -10 -1 -14 -15 -6 -18 -83 -3 -83 6 0 10 -4 10 -10 0
-5 -6 -10 -14 -10 -10 0 -15 16 -18 58 -4 64 3 122 10 87 2 -11 9 -24 16 -28z
m-574 -58 c0 -33 -4 -59 -10 -59 -5 0 -10 20 -10 45 0 25 -4 45 -10 45 -5 0
-10 -20 -10 -45 0 -25 -4 -45 -10 -45 -6 0 -10 26 -10 58 0 59 0 59 30 60 l30
1 0 -60z m110 31 c0 -23 -4 -30 -20 -30 -13 0 -20 -7 -20 -20 0 -22 25 -28 33
-7 3 6 6 2 6 -10 1 -18 -5 -23 -24 -23 -24 0 -25 3 -25 60 0 57 1 60 25 60 21
0 25 -5 25 -30z m83 -67 c7 2 15 26 18 53 l6 49 1 -62 c2 -61 1 -63 -23 -63
-24 0 -25 2 -23 63 l2 62 3 -53 c3 -36 8 -52 16 -49z m185 35 c2 -36 -1 -58
-8 -58 -5 0 -10 22 -10 51 0 31 -4 48 -10 44 -5 -3 -10 -26 -10 -51 0 -24 -4
-44 -10 -44 -5 0 -10 23 -10 51 0 31 -4 48 -10 44 -5 -3 -10 -26 -10 -51 0
-24 -4 -44 -10 -44 -6 0 -10 26 -10 59 l0 58 48 -1 47 -1 3 -57z m107 2 c0
-53 -1 -55 -27 -58 -28 -3 -28 -3 -28 58 0 61 0 61 28 58 26 -3 27 -5 27 -58z
m310 0 c0 -53 -1 -55 -27 -58 -28 -3 -28 -3 -28 58 0 61 0 61 28 58 26 -3 27
-5 27 -58z m109 44 c4 -9 3 -20 0 -23 -4 -3 -9 0 -11 7 -9 25 -23 -1 -23 -44
0 -24 -4 -44 -10 -44 -6 0 -10 27 -10 60 0 57 1 60 24 60 13 0 27 -7 30 -16z
m106 -44 c0 -57 -1 -60 -24 -60 -14 0 -28 5 -31 11 -11 16 4 59 20 59 8 0 15
7 15 16 0 11 -6 14 -20 9 -11 -3 -20 -2 -20 3 0 15 12 22 37 22 22 0 23 -4 23
-60z m70 43 c1 -17 1 -17 14 0 20 26 26 21 15 -13 -8 -21 -8 -39 0 -60 11 -34
5 -39 -15 -12 -13 16 -13 16 -14 0 0 -10 -4 -18 -10 -18 -12 0 -12 2 -1 34 6
15 6 37 1 55 -5 19 -5 31 1 31 5 0 9 -8 9 -17z m-876 -288 c220 -109 488 -74
672 87 l31 27 33 -34 34 -35 -25 -26 c-36 -40 -145 -108 -219 -137 -231 -91
-507 -48 -703 109 l-58 47 37 38 37 38 45 -40 c25 -22 77 -55 116 -74z"/>
<path d="M230 645 c0 -19 5 -35 10 -35 6 0 10 16 10 35 0 19 -4 35 -10 35 -5
0 -10 -16 -10 -35z"/>
<path d="M450 600 c0 -5 7 -10 15 -10 8 0 15 5 15 10 0 6 -7 10 -15 10 -8 0
-15 -4 -15 -10z"/>
<path d="M830 570 c0 -22 5 -40 10 -40 6 0 10 18 10 40 0 22 -4 40 -10 40 -5
0 -10 -18 -10 -40z"/>
<path d="M1140 570 c0 -22 5 -40 10 -40 6 0 10 18 10 40 0 22 -4 40 -10 40 -5
0 -10 -18 -10 -40z"/>
<path d="M1350 544 c0 -8 5 -12 10 -9 6 3 10 10 10 16 0 5 -4 9 -10 9 -5 0
-10 -7 -10 -16z"/>
</g>
</svg>
